<svg width="22" height="22" viewBox="0 0 22 22" fill="none" xmlns="http://www.w3.org/2000/svg">
<path d="M19.5556 0H2.44444C1.09442 0 0 1.09442 0 2.44444V19.5556C0 20.9056 1.09442 22 2.44444 22H19.5556C20.9056 22 22 20.9056 22 19.5556V2.44444C22 1.09442 20.9056 0 19.5556 0ZM6.72222 17.7222C6.72222 18.0597 6.44862 18.3333 6.11111 18.3333H4.27778C3.94027 18.3333 3.66667 18.0597 3.66667 17.7222V9.16667C3.66667 8.82916 3.94027 8.55556 4.27778 8.55556H6.11111C6.44862 8.55556 6.72222 8.82916 6.72222 9.16667V17.7222ZM5.19444 7.33333C4.18192 7.33333 3.36111 6.51252 3.36111 5.5C3.36111 4.48748 4.18192 3.66667 5.19444 3.66667C6.20697 3.66667 7.02778 4.48748 7.02778 5.5C7.02778 6.51252 6.20697 7.33333 5.19444 7.33333ZM18.3333 17.7222C18.3333 18.0597 18.0597 18.3333 17.7222 18.3333H15.8889C15.5514 18.3333 15.2778 18.0597 15.2778 17.7222V13.1389C15.2778 12.1264 14.457 11.3056 13.4444 11.3056C12.4319 11.3056 11.6111 12.1264 11.6111 13.1389V17.7222C11.6111 18.0597 11.3375 18.3333 11 18.3333H9.16667C8.82916 18.3333 8.55556 18.0597 8.55556 17.7222V9.16667C8.55556 8.82916 8.82916 8.55556 9.16667 8.55556H11C11.3375 8.55556 11.6111 8.82916 11.6111 9.16667V9.9C12.3545 8.76872 13.6608 8.13908 15.0089 8.26222C16.9371 8.49997 18.373 10.1576 18.3333 12.1V17.7222Z" fill="#3935D8"/>
<path d="M5.19444 7.33333C4.18192 7.33333 3.36111 6.51252 3.36111 5.5C3.36111 4.48748 4.18192 3.66667 5.19444 3.66667C6.20697 3.66667 7.02778 4.48748 7.02778 5.5C7.02778 6.51252 6.20697 7.33333 5.19444 7.33333Z" fill="white"/>
<path d="M6.72222 17.7222C6.72222 18.0597 6.44862 18.3333 6.11111 18.3333H4.27778C3.94027 18.3333 3.66667 18.0597 3.66667 17.7222V9.16667C3.66667 8.82916 3.94027 8.55556 4.27778 8.55556H6.11111C6.44862 8.55556 6.72222 8.82916 6.72222 9.16667V17.7222Z" fill="white"/>
<path d="M18.3333 17.7222C18.3333 18.0597 18.0597 18.3333 17.7222 18.3333H15.8889C15.5514 18.3333 15.2778 18.0597 15.2778 17.7222V13.1389C15.2778 12.1264 14.457 11.3056 13.4444 11.3056C12.4319 11.3056 11.6111 12.1264 11.6111 13.1389V17.7222C11.6111 18.0597 11.3375 18.3333 11 18.3333H9.16667C8.82916 18.3333 8.55556 18.0597 8.55556 17.7222V9.16667C8.55556 8.82916 8.82916 8.55556 9.16667 8.55556H11C11.3375 8.55556 11.6111 8.82916 11.6111 9.16667V9.9C12.3545 8.76872 13.6608 8.13908 15.0089 8.26222C16.9371 8.49997 18.373 10.1576 18.3333 12.1V17.7222Z" fill="white"/>
</svg>
