<svg width="48" height="48" viewBox="0 0 48 48" fill="none" xmlns="http://www.w3.org/2000/svg">
<path d="M13.6975 16.5998L24 23.5382L34.3025 16.5998C34.0906 16.2782 33.7305 16.0714 33.3333 16.0714H14.6667C14.2695 16.0714 13.9094 16.2782 13.6975 16.5998Z" fill="#3935D8"/>
<path d="M34.5 20.0837V30.7347C34.5 31.4084 33.9633 31.9286 33.3333 31.9286H14.6667C14.0367 31.9286 13.5 31.4084 13.5 30.7347V20.0837L23.1621 26.5909C23.6686 26.932 24.3314 26.932 24.8379 26.5909L34.5 20.0837Z" fill="#3935D8"/>
<path fill-rule="evenodd" clip-rule="evenodd" d="M48 24C48 37.2548 37.2548 48 24 48C10.7452 48 0 37.2548 0 24C0 10.7452 10.7452 0 24 0C37.2548 0 48 10.7452 48 24ZM37.4999 17.236C37.4843 14.9475 35.639 13.0714 33.3333 13.0714H14.6667C12.3609 13.0714 10.5156 14.9476 10.5001 17.2362C10.4998 17.2525 10.4998 17.2688 10.5 17.2851V30.7347C10.5 33.0365 12.3512 34.9286 14.6667 34.9286H33.3333C35.6488 34.9286 37.5 33.0365 37.5 30.7347V17.2853C37.5002 17.2689 37.5002 17.2525 37.4999 17.236Z" fill="#3935D8"/>
<path fill-rule="evenodd" clip-rule="evenodd" d="M37.4999 17.236C37.4843 14.9475 35.639 13.0714 33.3333 13.0714H14.6667C12.3609 13.0714 10.5156 14.9476 10.5001 17.2362C10.4998 17.2525 10.4998 17.2688 10.5 17.2851V30.7347C10.5 33.0365 12.3512 34.9286 14.6667 34.9286H33.3333C35.6488 34.9286 37.5 33.0365 37.5 30.7347V17.2853C37.5002 17.2689 37.5002 17.2525 37.4999 17.236ZM24 23.5382L13.6975 16.5998C13.9094 16.2782 14.2695 16.0714 14.6667 16.0714H33.3333C33.7305 16.0714 34.0906 16.2782 34.3025 16.5998L24 23.5382ZM34.5 30.7347V20.0837L24.8379 26.5909C24.3314 26.932 23.6686 26.932 23.1621 26.5909L13.5 20.0837V30.7347C13.5 31.4084 14.0367 31.9286 14.6667 31.9286H33.3333C33.9633 31.9286 34.5 31.4084 34.5 30.7347Z" fill="white"/>
</svg>
