<svg width="48" height="48" viewBox="0 0 48 48" fill="none" xmlns="http://www.w3.org/2000/svg">
<path fill-rule="evenodd" clip-rule="evenodd" d="M24 48C37.2548 48 48 37.2548 48 24C48 10.7452 37.2548 0 24 0C10.7452 0 0 10.7452 0 24C0 37.2548 10.7452 48 24 48ZM16.0139 9.9985C16.663 9.35917 17.5435 9 18.4615 9H29.5385C30.4565 9 31.337 9.35917 31.9861 9.9985C32.6353 10.6378 33 11.5049 33 12.4091V35.5909C33 36.4951 32.6353 37.3622 31.9861 38.0015C31.337 38.6408 30.4565 39 29.5385 39H18.4615C17.5435 39 16.663 38.6408 16.0139 38.0015C15.3647 37.3622 15 36.4951 15 35.5909V12.4091C15 11.5049 15.3647 10.6378 16.0139 9.9985ZM21.9231 35.5909C21.9231 36.7227 22.8508 37.6364 24 37.6364C25.1492 37.6364 26.0769 36.7227 26.0769 35.5909C26.0769 34.4591 25.1492 33.5455 24 33.5455C22.8508 33.5455 21.9231 34.4591 21.9231 35.5909ZM17.7692 32.1818H30.2308V13.0909H17.7692V32.1818Z" fill="#2C2C2C"/>
</svg>
