<svg width="28" height="25" viewBox="0 0 28 25" fill="none" xmlns="http://www.w3.org/2000/svg">
<path fill-rule="evenodd" clip-rule="evenodd" d="M9.1364 0.107072C9.56717 -0.0356907 10.0328 -0.0356907 10.4636 0.107072L18.2 2.67309L25.6046 0.217124C25.8781 0.126418 26.1694 0.10168 26.4545 0.144946C26.7395 0.188213 27.0101 0.298246 27.244 0.465982C27.478 0.633717 27.6685 0.854355 27.7999 1.10972C27.9314 1.36508 27.9999 1.64786 28 1.93477V20.3566C28 20.7952 27.8612 21.2227 27.6034 21.5785C27.3456 21.9343 26.9818 22.2003 26.5636 22.3389L18.8636 24.8924C18.4324 25.0359 17.9676 25.0359 17.5364 24.8924L9.8 22.3264L2.3954 24.7823C2.12186 24.873 1.83057 24.8978 1.54553 24.8545C1.2605 24.8112 0.989873 24.7012 0.755952 24.5335C0.52203 24.3657 0.331506 24.1451 0.200076 23.8897C0.0686463 23.6344 7.10412e-05 23.3516 0 23.0647V4.64287C4.07853e-05 4.20425 0.138792 3.77677 0.396596 3.42098C0.654399 3.0652 1.01818 2.79915 1.4364 2.66055L9.1364 0.107072ZM8.4 19.8551V3.28743L2.8 5.14577V21.712L8.4 19.8537V19.8551ZM11.2 3.28882V19.8551L16.8 21.7134V5.14437L11.2 3.28603V3.28882ZM19.6 5.14716V21.7134L25.2 19.8551V3.28743L19.6 5.14716Z" fill="#3935D8"/>
</svg>
